<svg width="37" height="40" viewBox="0 0 37 40" fill="none" xmlns="http://www.w3.org/2000/svg">
<path d="M29.2917 5H7.70833C6.00546 5 4.625 6.49238 4.625 8.33333V31.6667C4.625 33.5076 6.00546 35 7.70833 35H29.2917C30.9945 35 32.375 33.5076 32.375 31.6667V8.33333C32.375 6.49238 30.9945 5 29.2917 5Z" stroke="#358438" stroke-width="3" stroke-linecap="round" stroke-linejoin="round"/>
<path d="M18.5 21.6667C21.0543 21.6667 23.125 19.4281 23.125 16.6667C23.125 13.9053 21.0543 11.6667 18.5 11.6667C15.9457 11.6667 13.875 13.9053 13.875 16.6667C13.875 19.4281 15.9457 21.6667 18.5 21.6667Z" stroke="#358438" stroke-width="3" stroke-linecap="round" stroke-linejoin="round"/>
<path d="M10.7915 35V31.6666C10.7915 30.7826 11.1164 29.9347 11.6946 29.3096C12.2728 28.6845 13.0571 28.3333 13.8748 28.3333H23.1248C23.9426 28.3333 24.7268 28.6845 25.3051 29.3096C25.8833 29.9347 26.2082 30.7826 26.2082 31.6666V35" stroke="#358438" stroke-width="3" stroke-linecap="round" stroke-linejoin="round"/>
</svg>
