<svg width="40" height="40" viewBox="0 0 40 40" fill="none" xmlns="http://www.w3.org/2000/svg">
<path d="M6.6665 32.5V7.49998C6.6665 6.39491 7.10549 5.3351 7.88689 4.5537C8.66829 3.7723 9.7281 3.33331 10.8332 3.33331H31.6665C32.1085 3.33331 32.5325 3.50891 32.845 3.82147C33.1576 4.13403 33.3332 4.55795 33.3332 4.99998V35C33.3332 35.442 33.1576 35.8659 32.845 36.1785C32.5325 36.4911 32.1085 36.6666 31.6665 36.6666H10.8332C9.7281 36.6666 8.66829 36.2277 7.88689 35.4463C7.10549 34.6649 6.6665 33.605 6.6665 32.5ZM6.6665 32.5C6.6665 31.3949 7.10549 30.3351 7.88689 29.5537C8.66829 28.7723 9.7281 28.3333 10.8332 28.3333H33.3332" stroke="#358438" stroke-width="3" stroke-linecap="round" stroke-linejoin="round"/>
<g clip-path="url(#clip0_261_1674)">
<path d="M21.645 18.355C21.7741 18.4143 21.9195 18.4278 22.0573 18.3934C22.1951 18.359 22.3171 18.2786 22.4031 18.1656L22.625 17.875C22.7414 17.7198 22.8924 17.5938 23.066 17.507C23.2396 17.4202 23.4309 17.375 23.625 17.375H25.5C25.8315 17.375 26.1495 17.5067 26.3839 17.7411C26.6183 17.9755 26.75 18.2935 26.75 18.625V20.5C26.75 20.8315 26.6183 21.1495 26.3839 21.3839C26.1495 21.6183 25.8315 21.75 25.5 21.75C22.5163 21.75 19.6548 20.5647 17.545 18.455C15.4353 16.3452 14.25 13.4837 14.25 10.5C14.25 10.1685 14.3817 9.85054 14.6161 9.61612C14.8505 9.3817 15.1685 9.25 15.5 9.25H17.375C17.7065 9.25 18.0245 9.3817 18.2589 9.61612C18.4933 9.85054 18.625 10.1685 18.625 10.5V12.375C18.625 12.5691 18.5798 12.7604 18.493 12.934C18.4062 13.1076 18.2802 13.2586 18.125 13.375L17.8325 13.5944C17.7178 13.682 17.6369 13.8066 17.6036 13.9471C17.5704 14.0876 17.5867 14.2352 17.65 14.365C18.5042 16.0999 19.909 17.503 21.645 18.355Z" stroke="#358438" stroke-width="2" stroke-linecap="round" stroke-linejoin="round"/>
</g>
<defs>
<clipPath id="clip0_261_1674">
<rect width="15" height="15" fill="white" transform="translate(13 8)"/>
</clipPath>
</defs>
</svg>
