<svg width="40" height="40" viewBox="0 0 40 40" fill="none" xmlns="http://www.w3.org/2000/svg">
<path d="M25 21.6667C25 20.3406 24.4732 19.0688 23.5355 18.1312C22.5979 17.1935 21.3261 16.6667 20 16.6667C18.6739 16.6667 17.4021 17.1935 16.4645 18.1312C15.5268 19.0688 15 20.3406 15 21.6667" stroke="#358438" stroke-width="3" stroke-linecap="round" stroke-linejoin="round"/>
<path d="M6.6665 32.5V7.49998C6.6665 6.39491 7.10549 5.3351 7.88689 4.5537C8.66829 3.7723 9.7281 3.33331 10.8332 3.33331H31.6665C32.1085 3.33331 32.5325 3.50891 32.845 3.82147C33.1576 4.13403 33.3332 4.55795 33.3332 4.99998V35C33.3332 35.442 33.1576 35.8659 32.845 36.1785C32.5325 36.4911 32.1085 36.6666 31.6665 36.6666H10.8332C9.7281 36.6666 8.66829 36.2277 7.88689 35.4463C7.10549 34.6649 6.6665 33.605 6.6665 32.5ZM6.6665 32.5C6.6665 31.3949 7.10549 30.3351 7.88689 29.5537C8.66829 28.7723 9.7281 28.3333 10.8332 28.3333H33.3332" stroke="#358438" stroke-width="3" stroke-linecap="round" stroke-linejoin="round"/>
<path d="M19.9998 16.6667C21.8408 16.6667 23.3332 15.1743 23.3332 13.3333C23.3332 11.4924 21.8408 10 19.9998 10C18.1589 10 16.6665 11.4924 16.6665 13.3333C16.6665 15.1743 18.1589 16.6667 19.9998 16.6667Z" stroke="#358438" stroke-width="3" stroke-linecap="round" stroke-linejoin="round"/>
</svg>
